<svg width="488" height="488" xmlns="http://www.w3.org/2000/svg" xmlns:xlink="http://www.w3.org/1999/xlink" xml:space="preserve" overflow="hidden"><defs><clipPath id="clip0"><rect x="1712" y="627" width="488" height="488"/></clipPath><clipPath id="clip1"><rect x="1798" y="724" width="318" height="293"/></clipPath><clipPath id="clip2"><rect x="1798" y="724" width="318" height="293"/></clipPath><clipPath id="clip3"><rect x="1798" y="724" width="318" height="293"/></clipPath><clipPath id="clip4"><rect x="1798" y="724" width="318" height="293"/></clipPath></defs><g clip-path="url(#clip0)" transform="translate(-1712 -627)"><path d="M1712 708.335C1712 663.415 1748.41 627 1793.33 627L2118.67 627C2163.58 627 2200 663.415 2200 708.335L2200 1033.67C2200 1078.59 2163.58 1115 2118.67 1115L1793.33 1115C1748.41 1115 1712 1078.59 1712 1033.67Z" fill="#FFFFFF" fill-rule="evenodd"/><g clip-path="url(#clip1)"><g clip-path="url(#clip2)"><g clip-path="url(#clip3)"><g clip-path="url(#clip4)"><path d="M308.946 1338.84C290.063 1306.21 384.483 1143.08 422.252 1143.08 460.019 1143.08 545.382 1313.93 535.554 1338.84 525.728 1363.75 327.83 1371.47 308.946 1338.84Z" fill="#2062FB" fill-rule="evenodd" transform="matrix(1.0072 0 0 1 1505.1 -380.716)"/><path d="M485.53 1120.3C520.857 1120.3 600.709 1279.25 591.517 1302.43 589.218 1308.23 575.926 1313.02 557.001 1316.48L552.777 1317.02 545.75 1294C527.655 1245.28 486.233 1170.54 456.474 1146.98L451.433 1144.68 451.579 1144.49C464.552 1129.79 476.698 1120.3 485.53 1120.3Z" fill="#78B1FD" fill-rule="evenodd" transform="matrix(1.0072 0 0 1 1505.1 -380.716)"/></g></g></g></g></g></svg>