<svg width="52" height="48" xmlns="http://www.w3.org/2000/svg" xmlns:xlink="http://www.w3.org/1999/xlink" xml:space="preserve" overflow="hidden"><defs><clipPath id="clip0"><rect x="49" y="460" width="52" height="48"/></clipPath></defs><g clip-path="url(#clip0)" transform="translate(-49 -460)"><path d="M50.9602 220.84C47.8454 215.458 63.4198 188.549 69.6498 188.549 75.8794 188.549 89.9598 216.73 88.3387 220.84 86.7179 224.949 54.075 226.221 50.9602 220.84Z" fill="#2062FB" fill-rule="evenodd" transform="matrix(1.00481 0 0 1 0.637314 277.614)"/><path d="M80.0873 184.792C85.9145 184.792 99.086 211.01 97.5697 214.834 97.1906 215.79 94.998 216.58 91.8764 217.151L91.1796 217.241 90.0206 213.443C87.0359 205.407 80.2034 193.078 75.2946 189.192L74.4632 188.813 74.4872 188.782C76.6271 186.357 78.6305 184.792 80.0873 184.792Z" fill="#78B1FD" fill-rule="evenodd" transform="matrix(1.00481 0 0 1 0.637314 277.614)"/></g></svg>