<svg width="1558" height="165" xmlns="http://www.w3.org/2000/svg" xmlns:xlink="http://www.w3.org/1999/xlink" xml:space="preserve" overflow="hidden"><defs><clipPath id="clip0"><rect x="168" y="1580" width="1558" height="165"/></clipPath><clipPath id="clip1"><rect x="168" y="1579" width="179" height="166"/></clipPath><clipPath id="clip2"><rect x="168" y="1579" width="179" height="166"/></clipPath><clipPath id="clip3"><rect x="151" y="1555" width="216" height="216"/></clipPath><clipPath id="clip4"><rect x="151" y="1555" width="216" height="216"/></clipPath></defs><g clip-path="url(#clip0)" transform="translate(-168 -1580)"><g clip-path="url(#clip1)"><g clip-path="url(#clip2)"><g clip-path="url(#clip3)"><g clip-path="url(#clip4)"><path d="M175.176 759.136C164.468 740.636 218.006 648.138 239.421 648.138 260.836 648.138 309.237 745.008 303.664 759.136 298.093 773.262 185.883 777.635 175.176 759.136Z" fill="#2062FB" fill-rule="evenodd" transform="matrix(1.00059 0 0 1 2.45084 953.05)"/><path d="M275.3 635.222C295.331 635.222 340.608 725.348 335.396 738.491 334.093 741.777 326.556 744.495 315.825 746.456L313.43 746.767 309.446 733.712C299.186 706.087 275.699 663.707 258.825 650.347L255.967 649.044 256.05 648.937C263.406 640.601 270.292 635.222 275.3 635.222Z" fill="#78B1FD" fill-rule="evenodd" transform="matrix(1.00059 0 0 1 2.45084 953.05)"/></g></g></g></g><path d="M867.574 1602C871.025 1602 873.959 1603.21 876.376 1605.62 878.792 1608.04 880 1610.97 880 1614.43 880 1617.88 878.792 1620.84 876.376 1623.3 873.959 1625.77 871.025 1627 867.574 1627 864.122 1627 861.163 1625.77 858.698 1623.3 856.233 1620.84 855 1617.88 855 1614.43 855 1610.97 856.233 1608.04 858.698 1605.62 861.163 1603.21 864.122 1602 867.574 1602Z" fill="#437CFA" fill-rule="evenodd"/><path d="M1532.57 1602C1536.03 1602 1538.96 1603.21 1541.38 1605.62 1543.79 1608.04 1545 1610.97 1545 1614.43 1545 1617.88 1543.79 1620.84 1541.38 1623.3 1538.96 1625.77 1536.03 1627 1532.57 1627 1529.12 1627 1526.16 1625.77 1523.7 1623.3 1521.23 1620.84 1520 1617.88 1520 1614.43 1520 1610.97 1521.23 1608.04 1523.7 1605.62 1526.16 1603.21 1529.12 1602 1532.57 1602Z" fill="#2062FB" fill-rule="evenodd"/><path d="M463.03 1602C478.879 1602 491.988 1607.79 502.358 1619.36L488.418 1633.01C481.667 1625 473.254 1620.99 463.177 1620.99 456.622 1620.99 450.654 1622.5 445.274 1625.52 439.893 1628.54 435.662 1632.82 432.58 1638.36 429.499 1643.9 427.958 1650.28 427.958 1657.5 427.958 1664.72 429.499 1671.1 432.58 1676.64 435.662 1682.18 439.893 1686.46 445.274 1689.48 450.654 1692.5 456.622 1694.01 463.177 1694.01 474.232 1694.01 483.477 1689.36 490.912 1680.06L505 1693.56C499.815 1699.89 493.676 1704.71 486.583 1708.03 479.49 1711.34 471.639 1713 463.03 1713 452.856 1713 443.562 1710.55 435.148 1705.65 426.735 1700.76 420.107 1694.08 415.264 1685.62 410.421 1677.16 408 1667.79 408 1657.5 408 1647.21 410.421 1637.84 415.264 1629.38 420.107 1620.92 426.735 1614.24 435.148 1609.35 443.562 1604.45 452.856 1602 463.03 1602Z" fill="#437CFA" fill-rule="evenodd"/><path d="M818.868 1605 838 1605 838 1710.64 820.045 1710.64 820.045 1701.64 818.868 1701.64C816.906 1704.89 813.938 1707.59 809.964 1709.75 805.991 1711.92 801.453 1713 796.351 1713 789.581 1713 783.424 1711.3 777.881 1707.91 772.338 1704.52 767.972 1699.8 764.783 1693.75 761.594 1687.7 760 1680.79 760 1673.02 760 1665.34 761.594 1658.46 764.783 1652.36 767.972 1646.26 772.338 1641.52 777.881 1638.12 783.424 1634.73 789.581 1633.03 796.351 1633.03 801.453 1633.03 805.966 1634.14 809.891 1636.35 813.815 1638.57 816.808 1641.3 818.868 1644.54L820.045 1644.54 818.868 1633.92 818.868 1605ZM799.589 1651.03C796.057 1651.03 792.721 1651.94 789.581 1653.76 786.442 1655.58 783.94 1658.16 782.075 1661.51 780.211 1664.85 779.279 1668.69 779.279 1673.02 779.279 1677.34 780.211 1681.18 782.075 1684.52 783.94 1687.87 786.442 1690.48 789.581 1692.34 792.721 1694.21 796.057 1695.15 799.589 1695.15 803.219 1695.15 806.604 1694.21 809.743 1692.34 812.883 1690.48 815.385 1687.87 817.249 1684.52 819.113 1681.18 820.045 1677.34 820.045 1673.02 820.045 1668.69 819.113 1664.85 817.249 1661.51 815.385 1658.16 812.883 1655.58 809.743 1653.76 806.604 1651.94 803.219 1651.03 799.589 1651.03Z" fill="#437CFA" fill-rule="evenodd"/><path d="M1255 1605 1290.7 1605C1301.72 1605 1311.31 1607.2 1319.48 1611.6 1327.64 1616 1333.93 1622.16 1338.36 1630.08 1342.79 1638 1345 1647.14 1345 1657.5 1345 1667.86 1342.79 1677 1338.36 1684.92 1333.93 1692.84 1327.64 1699 1319.48 1703.4 1311.31 1707.8 1301.72 1710 1290.7 1710L1255 1710 1255 1605ZM1274.92 1623.77 1274.92 1691.23 1289.82 1691.23C1301.23 1691.23 1309.93 1688.22 1315.93 1682.21 1321.93 1676.2 1324.93 1667.96 1324.93 1657.5 1324.93 1647.04 1321.93 1638.8 1315.93 1632.79 1309.93 1626.78 1301.23 1623.77 1289.82 1623.77L1274.92 1623.77Z" fill="#2062FB" fill-rule="evenodd"/><path d="M1078 1614 1097.15 1614 1097.15 1635.32 1115.42 1635.32 1115.42 1651.9 1097.15 1651.9 1097.15 1683.13C1097.15 1686.98 1097.97 1689.74 1099.63 1691.42 1100.99 1693 1103.33 1693.79 1106.65 1693.79 1108.5 1693.79 1110.03 1693.54 1111.25 1693.05 1112.47 1692.56 1114.05 1691.72 1116 1690.53L1116 1709.48C1111.81 1711.16 1107.38 1712 1102.7 1712 1099 1712 1095.59 1711.43 1092.47 1710.3 1089.35 1709.16 1086.82 1707.61 1084.87 1705.63 1080.29 1701.19 1078 1694.88 1078 1686.69L1078 1665.56 1078.29 1665.56 1078.29 1624.25 1078 1624.25 1078 1614Z" fill="#437CFA" fill-rule="evenodd"/><path d="M556.074 1633C563.735 1633 570.61 1634.75 576.7 1638.24 582.79 1641.73 587.528 1646.53 590.917 1652.63 594.306 1658.73 596 1665.52 596 1673 596 1680.58 594.306 1687.39 590.917 1693.44 587.528 1699.49 582.79 1704.27 576.7 1707.76 570.61 1711.25 563.735 1713 556.074 1713 548.314 1713 541.39 1711.25 535.3 1707.76 529.21 1704.27 524.471 1699.49 521.083 1693.44 517.694 1687.39 516 1680.58 516 1673 516 1665.52 517.694 1658.73 521.083 1652.63 524.471 1646.53 529.21 1641.73 535.3 1638.24 541.39 1634.75 548.314 1633 556.074 1633ZM556.074 1651.01C552.341 1651.01 548.904 1651.89 545.761 1653.66 542.617 1655.44 540.088 1657.99 538.173 1661.34 536.258 1664.69 535.3 1668.57 535.3 1673 535.3 1677.43 536.258 1681.34 538.173 1684.73 540.088 1688.13 542.617 1690.71 545.761 1692.48 548.904 1694.25 552.341 1695.14 556.074 1695.14 559.806 1695.14 563.244 1694.25 566.387 1692.48 569.53 1690.71 572.034 1688.15 573.901 1684.81 575.767 1681.46 576.7 1677.53 576.7 1673 576.7 1668.57 575.767 1664.69 573.901 1661.34 572.034 1657.99 569.53 1655.44 566.387 1653.66 563.244 1651.89 559.806 1651.01 556.074 1651.01Z" fill="#437CFA" fill-rule="evenodd"/><path d="M646.074 1633C653.735 1633 660.61 1634.75 666.7 1638.24 672.79 1641.73 677.529 1646.53 680.917 1652.63 684.306 1658.73 686 1665.52 686 1673 686 1680.58 684.306 1687.39 680.917 1693.44 677.529 1699.49 672.79 1704.27 666.7 1707.76 660.61 1711.25 653.735 1713 646.074 1713 638.314 1713 631.39 1711.25 625.3 1707.76 619.211 1704.27 614.471 1699.49 611.083 1693.44 607.694 1687.39 606 1680.58 606 1673 606 1665.52 607.694 1658.73 611.083 1652.63 614.471 1646.53 619.211 1641.73 625.3 1638.24 631.39 1634.75 638.314 1633 646.074 1633ZM646.074 1651.01C642.341 1651.01 638.904 1651.89 635.761 1653.66 632.617 1655.44 630.088 1657.99 628.173 1661.34 626.258 1664.69 625.3 1668.57 625.3 1673 625.3 1677.43 626.258 1681.34 628.173 1684.73 630.088 1688.13 632.617 1690.71 635.761 1692.48 638.904 1694.25 642.341 1695.14 646.074 1695.14 649.806 1695.14 653.244 1694.25 656.387 1692.48 659.53 1690.71 662.035 1688.15 663.901 1684.81 665.767 1681.46 666.7 1677.53 666.7 1673 666.7 1668.57 665.767 1664.69 663.901 1661.34 662.035 1657.99 659.53 1655.44 656.387 1653.66 653.244 1651.89 649.806 1651.01 646.074 1651.01Z" fill="#437CFA" fill-rule="evenodd"/><path d="M940.899 1633C950.067 1633 957.042 1635.73 961.826 1641.2 966.609 1646.66 969 1654.13 969 1663.6L969 1710 949.419 1710 949.419 1665.94C949.419 1661.16 948.173 1657.45 945.682 1654.81 943.191 1652.18 939.703 1650.86 935.219 1650.86 929.937 1650.86 925.678 1652.86 922.439 1656.86 919.2 1660.86 917.581 1665.89 917.581 1671.94L917.581 1710 898 1710 898 1635.34 916.385 1635.34 916.385 1644.71 917.581 1644.71C919.873 1641.1 923.112 1638.25 927.297 1636.15 931.482 1634.05 936.016 1633 940.899 1633Z" fill="#437CFA" fill-rule="evenodd"/><path d="M1017.33 1633C1028.97 1633 1037.83 1635.66 1043.9 1640.97 1049.97 1646.28 1053 1654.06 1053 1664.29L1053 1710.64 1033.75 1710.64 1033.75 1702.96 1032.55 1702.96C1030.26 1705.92 1027.25 1708.33 1023.52 1710.2 1019.79 1712.07 1015.49 1713 1010.61 1713 1002.55 1713 995.936 1710.66 990.761 1705.99 985.587 1701.31 983 1695.19 983 1687.61 983 1682.59 984.343 1678.17 987.03 1674.33 989.717 1670.49 993.398 1667.54 998.075 1665.47 1002.75 1663.41 1007.93 1662.37 1013.6 1662.37 1021.46 1662.37 1028.17 1663.5 1033.75 1665.77L1033.75 1662.52C1033.75 1658.39 1032.18 1655.04 1029.04 1652.48 1025.91 1649.92 1021.71 1648.65 1016.43 1648.65 1012.85 1648.65 1009.39 1649.46 1006.06 1651.08 1002.73 1652.7 999.965 1654.85 997.776 1657.5L985.239 1647.76C988.921 1643.04 993.548 1639.4 999.119 1636.84 1004.69 1634.28 1010.76 1633 1017.33 1633ZM1017.78 1676.39C1007.63 1676.39 1002.55 1680.13 1002.55 1687.61 1002.55 1690.66 1003.65 1693.15 1005.84 1695.07 1008.02 1696.99 1011.16 1697.94 1015.24 1697.94 1020.91 1697.94 1025.41 1696.15 1028.75 1692.56 1032.08 1688.97 1033.75 1684.76 1033.75 1679.94 1028.67 1677.58 1023.35 1676.39 1017.78 1676.39Z" fill="#437CFA" fill-rule="evenodd"/><path d="M1166.74 1633C1174.53 1633 1181.23 1634.67 1186.85 1638.02 1192.47 1641.36 1196.73 1645.94 1199.64 1651.75 1202.55 1657.55 1204 1664 1204 1671.08 1204 1673.34 1203.85 1675.51 1203.56 1677.58L1146.93 1677.58C1147.91 1683.58 1150.3 1688.13 1154.1 1691.23 1157.89 1694.33 1162.45 1695.88 1167.77 1695.88 1172.21 1695.88 1176.03 1694.92 1179.23 1693 1182.44 1691.08 1184.98 1688.5 1186.85 1685.25L1202.52 1692.93C1194.83 1706.31 1183.15 1713 1167.48 1713 1159.99 1713 1153.23 1711.28 1147.22 1707.83 1141.21 1704.39 1136.5 1699.64 1133.1 1693.59 1129.7 1687.54 1128 1680.72 1128 1673.15 1128 1665.96 1129.68 1659.3 1133.03 1653.15 1136.38 1647 1141.01 1642.1 1146.93 1638.46 1152.84 1634.82 1159.44 1633 1166.74 1633ZM1166.89 1648.79C1162.25 1648.79 1158.29 1650.15 1154.98 1652.85 1151.68 1655.56 1149.29 1659.22 1147.81 1663.85L1185.37 1663.85C1185.17 1661.49 1184.31 1659.15 1182.78 1656.84 1181.25 1654.53 1179.13 1652.61 1176.42 1651.08 1173.71 1649.56 1170.53 1648.79 1166.89 1648.79Z" fill="#437CFA" fill-rule="evenodd"/><path d="M1394.74 1633C1402.53 1633 1409.23 1634.67 1414.85 1638.02 1420.47 1641.36 1424.73 1645.94 1427.64 1651.75 1430.55 1657.55 1432 1664 1432 1671.08 1432 1673.34 1431.85 1675.51 1431.56 1677.58L1374.93 1677.58C1375.91 1683.58 1378.3 1688.13 1382.1 1691.23 1385.89 1694.33 1390.45 1695.88 1395.77 1695.88 1400.21 1695.88 1404.03 1694.92 1407.23 1693 1410.44 1691.08 1412.98 1688.5 1414.85 1685.25L1430.52 1692.93C1422.83 1706.31 1411.15 1713 1395.48 1713 1387.99 1713 1381.23 1711.28 1375.22 1707.83 1369.21 1704.39 1364.5 1699.64 1361.1 1693.59 1357.7 1687.54 1356 1680.72 1356 1673.15 1356 1665.96 1357.68 1659.3 1361.03 1653.15 1364.38 1647 1369.01 1642.1 1374.93 1638.46 1380.84 1634.82 1387.45 1633 1394.74 1633ZM1394.89 1648.79C1390.25 1648.79 1386.29 1650.15 1382.98 1652.85 1379.68 1655.56 1377.29 1659.22 1375.81 1663.85L1413.37 1663.85C1413.17 1661.49 1412.31 1659.15 1410.78 1656.84 1409.25 1654.53 1407.13 1652.61 1404.42 1651.08 1401.71 1649.56 1398.53 1648.79 1394.89 1648.79Z" fill="#2062FB" fill-rule="evenodd"/><path d="M1473.78 1633C1489.33 1633 1499.72 1638.46 1504.93 1649.38L1488.4 1656.62C1485.44 1651.3 1480.72 1648.65 1474.22 1648.65 1470.87 1648.65 1468.22 1649.26 1466.25 1650.49 1464.28 1651.72 1463.3 1653.27 1463.3 1655.14 1463.3 1658.68 1466.64 1661.34 1473.34 1663.11L1484.41 1665.77C1491.89 1667.64 1497.53 1670.49 1501.32 1674.33 1505.11 1678.17 1507 1682.89 1507 1688.5 1507 1693.32 1505.6 1697.58 1502.79 1701.27 1499.99 1704.96 1496.15 1707.83 1491.28 1709.9 1486.4 1711.97 1481.01 1713 1475.11 1713 1465.95 1713 1458.55 1711.13 1452.89 1707.39 1447.23 1703.65 1443.26 1698.78 1441 1692.78L1458.28 1685.25C1459.85 1688.79 1462.09 1691.47 1464.99 1693.3 1467.9 1695.12 1471.27 1696.03 1475.11 1696.03 1478.65 1696.03 1481.6 1695.46 1483.97 1694.33 1486.33 1693.2 1487.51 1691.35 1487.51 1688.79 1487.51 1686.33 1486.43 1684.49 1484.26 1683.26 1482.1 1682.03 1478.85 1680.92 1474.52 1679.94L1465.66 1678.02C1459.55 1676.54 1454.49 1673.86 1450.45 1669.97 1446.41 1666.09 1444.4 1661.24 1444.4 1655.44 1444.4 1651.11 1445.7 1647.22 1448.31 1643.78 1450.92 1640.33 1454.46 1637.67 1458.94 1635.8 1463.42 1633.93 1468.36 1633 1473.78 1633Z" fill="#2062FB" fill-rule="evenodd"/><path d="M1593.97 1633C1598.87 1633 1603.23 1633.89 1607.05 1635.66 1610.87 1637.43 1613.96 1639.99 1616.31 1643.34L1617.48 1643.34 1617.48 1635.36 1636 1635.36 1636 1705.55C1636 1713.63 1634.43 1720.62 1631.3 1726.53 1628.16 1732.44 1623.71 1737 1617.93 1740.2 1612.15 1743.4 1605.39 1745 1597.65 1745 1588.14 1745 1580.26 1742.86 1573.99 1738.57 1567.72 1734.29 1563.51 1729.14 1561.35 1723.13L1579.43 1715.74C1580.99 1719.49 1583.39 1722.44 1586.63 1724.61 1589.86 1726.78 1593.53 1727.86 1597.65 1727.86 1603.72 1727.86 1608.55 1725.99 1612.12 1722.25 1615.7 1718.5 1617.48 1713.18 1617.48 1706.29L1617.48 1700.38 1616.31 1700.38C1613.96 1703.73 1610.87 1706.29 1607.05 1708.06 1603.23 1709.83 1598.87 1710.72 1593.97 1710.72 1587.8 1710.72 1582.05 1709.12 1576.71 1705.92 1571.37 1702.72 1567.08 1698.19 1563.85 1692.32 1560.62 1686.46 1559 1679.64 1559 1671.86 1559 1664.08 1560.62 1657.26 1563.85 1651.4 1567.08 1645.53 1571.37 1641 1576.71 1637.8 1582.05 1634.6 1587.8 1633 1593.97 1633ZM1597.94 1650.58C1592.45 1650.58 1587.8 1652.45 1583.98 1656.2 1580.16 1659.94 1578.25 1665.16 1578.25 1671.86 1578.25 1678.56 1580.16 1683.78 1583.98 1687.52 1587.8 1691.27 1592.45 1693.14 1597.94 1693.14 1603.33 1693.14 1607.93 1691.24 1611.75 1687.45 1615.57 1683.66 1617.48 1678.46 1617.48 1671.86 1617.48 1665.06 1615.6 1659.82 1611.83 1656.12 1608.06 1652.43 1603.43 1650.58 1597.94 1650.58Z" fill="#2062FB" fill-rule="evenodd"/><path d="M1698.29 1633C1707.33 1633 1714.21 1635.73 1718.93 1641.2 1723.64 1646.66 1726 1654.13 1726 1663.6L1726 1710 1706.69 1710 1706.69 1665.94C1706.69 1661.16 1705.47 1657.45 1703.01 1654.81 1700.55 1652.18 1697.12 1650.86 1692.69 1650.86 1687.49 1650.86 1683.29 1652.86 1680.09 1656.86 1676.9 1660.86 1675.31 1665.89 1675.31 1671.94L1675.31 1710 1656 1710 1656 1635.34 1674.13 1635.34 1674.13 1644.71 1675.31 1644.71C1677.57 1641.1 1680.76 1638.25 1684.88 1636.15 1689.01 1634.05 1693.48 1633 1698.29 1633Z" fill="#2062FB" fill-rule="evenodd"/><path d="M743.456 1633C746.936 1633 750.117 1633.54 753 1634.61L753 1653.83C750.316 1652.85 748.054 1652.14 746.215 1651.7 744.376 1651.26 742.412 1651.04 740.325 1651.04 734.559 1651.04 729.986 1653.09 726.605 1657.2 723.225 1661.31 721.535 1666.49 721.535 1672.75L721.535 1710 702 1710 702 1635.2 720.342 1635.2 720.342 1645.17 721.535 1645.17C723.424 1641.65 726.357 1638.74 730.333 1636.45 734.31 1634.15 738.684 1633 743.456 1633Z" fill="#437CFA" fill-rule="evenodd"/><path d="M858 1635 878 1635 878 1710 858 1710 858 1635Z" fill="#437CFA" fill-rule="evenodd"/><path d="M1523 1635 1542 1635 1542 1710 1523 1710 1523 1635Z" fill="#2062FB" fill-rule="evenodd"/></g></svg>